/* XPM */
/* This file is a part of the NsCDE - Not so Common Desktop Environment */
static char * PressedFPL_xpm[] = {
"30 24 3 1",
" 	c None",
".      s background m black c #93e6974ca5c0",
"+      s selectColor m black c #ae00b200c300",
"..............................",
"...++++++++++++++++++++++++...",
"...++++++++++++++++++++++++...",
"...++++++++++++++++++++++++...",
"...++++++++++++++++++++++++...",
"...++++++++++++++++++++++++...",
"...++++++++++++++++++++++++...",
"...++++++++++++++++++++++++...",
"...++++++++++++++++++++++++...",
"...++++++++++++++++++++++++...",
"...++++++++++++++++++++++++...",
"...++++++++++++++++++++++++...",
"...++++++++++++++++++++++++...",
"...++++++++++++++++++++++++...",
"...++++++++++++++++++++++++...",
"...++++++++++++++++++++++++...",
"...++++++++++++++++++++++++...",
"...++++++++++++++++++++++++...",
"...++++++++++++++++++++++++...",
"...++++++++++++++++++++++++...",
"...++++++++++++++++++++++++...",
"...++++++++++++++++++++++++...",
"...++++++++++++++++++++++++...",
".............................."};
