/* XPM */
/* This file is a part of the NsCDE - Not so Common Desktop Environment */
static char * SubpanelTitleInactive_xpm[] = {
"16 18 3 1",
" 	c None",
"+      c #dccfde86e5d2",
".      c #5e43606d69a3",
"++++++++++++++++",
"                ",
"                ",
"                ",
"                ",
"                ",
"                ",
"                ",
"                ",
"                ",
"                ",
"                ",
"                ",
"                ",
"                ",
"                ",
"                ",
"................"};
