/* XPM */
/* This file is a part of the NsCDE - Not so Common Desktop Environment */
static char * SubpanelTitleActive_xpm[] = {
"16 18 3 1",
" 	c None",
"+      c #dcb9af0cc366",
".      c #583526283c75",
"++++++++++++++++",
"                ",
"                ",
"                ",
"                ",
"                ",
"                ",
"                ",
"                ",
"                ",
"                ",
"                ",
"                ",
"                ",
"                ",
"                ",
"                ",
"................"};
