/* XPM */
/* This file is a part of the NsCDE - Not so Common Desktop Environment */
static char * WSM4BackBtn4_xpm[] = {
"126 30 3 1",
"       s background   m black   c #ae00b200c300",
".      s topShadowColor   m white   c #dccfde86e5d2",
"#      s bottomShadowColor   m white   c #5e43606d69a3",
"##############################################################################################################################",
"#                                                                                                                            .",
"#                                                                                                                            .",
"#                                                                                                                            .",
"#                                                                                                                            .",
"#                                                                                                                            .",
"#                                                                                                                            .",
"#                                                                                                                            .",
"#                                                                                                                            .",
"#                                                                                                                            .",
"#                                                                                                                            .",
"#                                                                                                                            .",
"#                                                                                                                            .",
"#                                                                                                                            .",
"#                                                                                                                            .",
"#                                                                                                                            .",
"#                                                                                                                            .",
"#                                                                                                                            .",
"#                                                                                                                            .",
"#                                                                                                                            .",
"#                                                                                                                            .",
"#                                                                                                                            .",
"#                                                                                                                            .",
"#                                                                                                                            .",
"#                                                                                                                            .",
"#                                                                                                                            .",
"#                                                                                                                            .",
"#                                                                                                                            .",
"#                                                                                                                            .",
"#............................................................................................................................."};
