/* XPM */
/* This file is a part of the NsCDE - Not so Common Desktop Environment */
static char * WSM8BackBtn1_xpm[] = {
"62 28 3 1",
"       s background   m black   c #630063009c00",
".      s topShadowColor   m white   c #b88ab88ad27b",
"#      s bottomShadowColor   m white   c #307b307b4c64",
"##############################################################",
"#                                                            .",
"#                                                            .",
"#                                                            .",
"#                                                            .",
"#                                                            .",
"#                                                            .",
"#                                                            .",
"#                                                            .",
"#                                                            .",
"#                                                            .",
"#                                                            .",
"#                                                            .",
"#                                                            .",
"#                                                            .",
"#                                                            .",
"#                                                            .",
"#                                                            .",
"#                                                            .",
"#                                                            .",
"#                                                            .",
"#                                                            .",
"#                                                            .",
"#                                                            .",
"#                                                            .",
"#                                                            .",
"#                                                            .",
"#............................................................."};
