/* XPM */
/* This file is a part of the NsCDE - Not so Common Desktop Environment */
static char * handle [] = {
/* width height ncolors cpp [x_hot y_hot] */
"20 80 2 1 0 0",
/* colors */
"     s bottomShadowColor m black c #5e43606d69a3",
".    s topShadowColor m white c #dccfde86e5d2",
/* pixels */
"                    ",
"....................",
"                    ",
"....................",
"                    ",
"....................",
"                    ",
"....................",
"                    ",
"....................",
"                    ",
"....................",
"                    ",
"....................",
"                    ",
"....................",
"                    ",
"....................",
"                    ",
"....................",
"                    ",
"....................",
"                    ",
"....................",
"                    ",
"....................",
"                    ",
"....................",
"                    ",
"....................",
"                    ",
"....................",
"                    ",
"....................",
"                    ",
"....................",
"                    ",
"....................",
"                    ",
"....................",
"                    ",
"....................",
"                    ",
"....................",
"                    ",
"....................",
"                    ",
"....................",
"                    ",
"....................",
"                    ",
"....................",
"                    ",
"....................",
"                    ",
"....................",
"                    ",
"....................",
"                    ",
"....................",
"                    ",
"....................",
"                    ",
"....................",
"                    ",
"....................",
"                    ",
"....................",
"                    ",
"....................",
"                    ",
"....................",
"                    ",
"....................",
"                    ",
"....................",
"                    ",
"....................",
"                    ",
"...................."};
