/* XPM */
/* This file is a part of the NsCDE - Not so Common Desktop Environment */
static char *FpIconify_xpm[] = {
/* width height num_colors chars_per_pixel */
"     4     4        3            1",
/* colors */
"       c None",
"#      s bottomShadowColor    m    black c #5e43606d69a3",
".      s topShadowColor    m    white c #dccfde86e5d2",
/* pixels */
"...#",
".  #",
".  #",
".###",
};
