/* XPM */
/* This file is a part of the NsCDE - Not so Common Desktop Environment */
static char * IconBgA_xpm[] = {
"76 76 6 1",
"%      s topShadowColor  m white c #dcb9af0cc366",
".      s bottomShadowColor  m black c #583526283c75",
"$      s topShadowColor  m white c #dccfde86e5d2",
"+      s bottomShadowColor  m black c #5e43606d69a3",
"#      s background m black c #ae00b200c300",
"@      s background m black c #b2004d007a00",
"%%%%%%%%%%%%%%%%%%%%%%%%%%%%%%%%%%%%%%%%%%%%%%%%%%%%%%%%%%%%%%%%%%%%%%%%%%%%",
"%%%%%%%%%%%%%%%%%%%%%%%%%%%%%%%%%%%%%%%%%%%%%%%%%%%%%%%%%%%%%%%%%%%%%%%%%%%.",
"%%@@@@@@@@@@@@@@@@@@@@@@@@@@@@@@@@@@@@@@@@@@@@@@@@@@@@@@@@@@@@@@@@@@@@@@@@..",
"%%@@@@@@@@@@@@@@@@@@@@@@@@@@@@@@@@@@@@@@@@@@@@@@@@@@@@@@@@@@@@@@@@@@@@@@@@..",
"%%@@....................................................................@@..",
"%%@@.$$$$$$$$$$$$$$$$$$$$$$$$$$$$$$$$$$$$$$$$$$$$$$$$$$$$$$$$$$$$$$$$$$%@@..",
"%%@@.$################################################################+%@@..",
"%%@@.$################################################################+%@@..",
"%%@@.$################################################################+%@@..",
"%%@@.$################################################################+%@@..",
"%%@@.$################################################################+%@@..",
"%%@@.$################################################################+%@@..",
"%%@@.$################################################################+%@@..",
"%%@@.$################################################################+%@@..",
"%%@@.$################################################################+%@@..",
"%%@@.$################################################################+%@@..",
"%%@@.$################################################################+%@@..",
"%%@@.$################################################################+%@@..",
"%%@@.$################################################################+%@@..",
"%%@@.$################################################################+%@@..",
"%%@@.$################################################################+%@@..",
"%%@@.$################################################################+%@@..",
"%%@@.$################################################################+%@@..",
"%%@@.$################################################################+%@@..",
"%%@@.$################################################################+%@@..",
"%%@@.$################################################################+%@@..",
"%%@@.$################################################################+%@@..",
"%%@@.$################################################################+%@@..",
"%%@@.$################################################################+%@@..",
"%%@@.$################################################################+%@@..",
"%%@@.$################################################################+%@@..",
"%%@@.$################################################################+%@@..",
"%%@@.$################################################################+%@@..",
"%%@@.$################################################################+%@@..",
"%%@@.$################################################################+%@@..",
"%%@@.$################################################################+%@@..",
"%%@@.$################################################################+%@@..",
"%%@@.$################################################################+%@@..",
"%%@@.$################################################################+%@@..",
"%%@@.$################################################################+%@@..",
"%%@@.$################################################################+%@@..",
"%%@@.$################################################################+%@@..",
"%%@@.$################################################################+%@@..",
"%%@@.$################################################################+%@@..",
"%%@@.$################################################################+%@@..",
"%%@@.$################################################################+%@@..",
"%%@@.$################################################################+%@@..",
"%%@@.$################################################################+%@@..",
"%%@@.$################################################################+%@@..",
"%%@@.$################################################################+%@@..",
"%%@@.$################################################################+%@@..",
"%%@@.$################################################################+%@@..",
"%%@@.$################################################################+%@@..",
"%%@@.$################################################################+%@@..",
"%%@@.$################################################################+%@@..",
"%%@@.$################################################################+%@@..",
"%%@@.$################################################################+%@@..",
"%%@@.$################################################################+%@@..",
"%%@@.$################################################################+%@@..",
"%%@@.$################################################################+%@@..",
"%%@@.$################################################################+%@@..",
"%%@@.$################################################################+%@@..",
"%%@@.$################################################################+%@@..",
"%%@@.$################################################################+%@@..",
"%%@@.$################################################################+%@@..",
"%%@@.$################################################################+%@@..",
"%%@@.$################################################################+%@@..",
"%%@@.$################################################################+%@@..",
"%%@@.$################################################################+%@@..",
"%%@@.$################################################################+%@@..",
"%%@@.$################################################################+%@@..",
"%%@@.$+++++++++++++++++++++++++++++++++++++++++++++++++++++++++++++++++%@@..",
"%%@@.%%%%%%%%%%%%%%%%%%%%%%%%%%%%%%%%%%%%%%%%%%%%%%%%%%%%%%%%%%%%%%%%%%%@@..",
"%%@@@@@@@@@@@@@@@@@@@@@@@@@@@@@@@@@@@@@@@@@@@@@@@@@@@@@@@@@@@@@@@@@@@@@@@@..",
"%%@@@@@@@@@@@@@@@@@@@@@@@@@@@@@@@@@@@@@@@@@@@@@@@@@@@@@@@@@@@@@@@@@@@@@@@@..",
"%..........................................................................."};
